<svg width="34" height="47" viewBox="0 0 34 47" fill="none" xmlns="http://www.w3.org/2000/svg">
<path d="M23.5486 46.0727L23.6432 45.9741L23.7417 45.8645L23.8517 45.7423L23.9738 45.603L24.1075 45.451L24.2208 45.3222L24.317 45.2101L24.3984 45.1172L24.465 45.0435L24.5145 44.9864L24.5464 44.9506L24.5612 44.9314L24.7443 44.6813L25.6394 43.1822L26.5532 41.6528L27.6239 39.6952L28.6846 37.7571L29.2257 36.7412L29.7519 35.7444L30.2599 34.7733L30.7487 33.837L31.2117 32.9485L31.6368 32.1249L31.8362 31.7393L32.0257 31.3734L32.2025 31.0291L32.3689 30.7089L32.5222 30.4149L32.6595 30.1491L32.7836 29.9095L32.8912 29.7026L32.9824 29.5284L33.0571 29.387L33.112 29.2848L33.1477 29.2173C33.5976 28.3755 33.217 27.3679 32.2945 26.9652C31.3721 26.5626 30.2609 26.9163 29.811 27.7581L29.7687 27.8386L29.7067 27.9584L29.6287 28.1065L29.537 28.2852L29.4288 28.4966L29.3047 28.7362L29.1674 29.002L29.0141 29.296L28.8505 29.6141L28.6742 29.9539L28.4874 30.3178L28.2908 30.7014L27.8663 31.5204L27.4066 32.4024L26.9183 33.3342L26.4113 34.2962L25.8868 35.2795L25.3545 36.2643L24.2931 38.1863L24.2448 38.2754L24.2118 38.0076L23.9087 35.4777L23.6107 32.9688L23.3743 30.4268L23.1329 27.8638L22.8916 25.3008L22.6486 22.7514L22.448 20.183L22.2441 17.6007L22.8916 24.6988L22.6871 22.121L22.4981 19.54L22.3118 16.957L22.1304 14.3744L22.881 22.8238L22.6991 20.2458L22.5227 17.6637L22.3425 15.0927L22.1629 12.5172L21.9744 9.95221L21.7859 7.38727L21.5854 4.83947L21.3843 2.29618C21.3103 1.36712 20.4231 0.670992 19.4007 0.745313C18.3783 0.819636 17.6059 1.63157 17.6799 2.56063L17.8782 5.10595L18.0771 7.64675L18.2617 10.2022L18.4435 12.7597L18.6166 15.3278L18.7918 17.8983L18.961 20.4775L19.1274 23.0586L18.3615 14.6124L18.5274 17.1981L18.7005 19.7867L18.873 22.3798L19.0637 24.9678L18.4013 17.8683L18.5903 20.4493L18.7827 23.0443L19.0175 25.6203L19.2511 28.1849L19.4876 30.7474L19.7262 33.333L20.0266 35.8855L20.3246 38.4149L20.6227 40.9443L20.7353 41.8861L20.7221 41.8712L20.3323 41.5452L19.4891 40.8166L18.5769 40.0154L17.6073 39.1496L16.5929 38.2385L15.5432 37.2877L14.4736 36.3144L13.3929 35.3288L12.3123 34.3431L11.2587 33.3827L10.2029 32.4199L8.25472 30.6577L7.35797 29.8534L6.53522 29.1222L5.80195 28.4814L5.46348 28.1875L5.14931 27.9211L4.86221 27.6799L4.5972 27.4636L4.35208 27.2698L4.14948 27.1186C3.31371 26.4957 2.07805 26.6119 1.38714 27.3721C0.695687 28.1367 0.81414 29.2594 1.64495 29.8818L1.80614 30.0017L1.98943 30.1465L2.21579 30.3295L2.47362 30.5429L2.76515 30.789L3.08098 31.0624L3.79603 31.6879L4.60331 32.4017L5.4868 33.1911L7.43328 34.9463L8.48743 35.9021L9.54378 36.8604L10.6299 37.842L11.7211 38.8241L12.8056 39.7987L13.8702 40.751L14.9017 41.6659L15.8956 42.5386L16.8337 43.3535L17.7005 44.0935L18.113 44.4398L18.5033 44.7612L18.871 45.0623L19.2188 45.341L19.5445 45.5949L19.8482 45.8239L20.1369 46.0309L20.4128 46.2185L20.6838 46.3851L20.9906 46.5459L21.2444 46.647L21.8289 46.7718L21.8366 46.7703L21.8389 46.7728L21.8515 46.7716L21.8615 46.7726L22.9051 46.5632L23.3164 46.2931L23.4517 46.1687L23.5513 46.0706L23.5486 46.0727Z" fill="white"/>
</svg>
